<svg width="221" height="11" viewBox="0 0 221 11" fill="none" xmlns="http://www.w3.org/2000/svg">
<path d="M17.6953 5.85156L19.1064 0.890625H19.79L19.3945 2.81934L17.876 8H17.1973L17.6953 5.85156ZM16.2354 0.890625L17.3584 5.75391L17.6953 8H17.0215L15.2979 0.890625H16.2354ZM21.6162 5.74902L22.7148 0.890625H23.6572L21.9385 8H21.2646L21.6162 5.74902ZM19.8926 0.890625L21.2646 5.85156L21.7627 8H21.084L19.6191 2.81934L19.2188 0.890625H19.8926ZM27.5146 7.09668V4.37695C27.5146 4.16862 27.4723 3.98796 27.3877 3.83496C27.3063 3.67871 27.1826 3.55827 27.0166 3.47363C26.8506 3.389 26.6455 3.34668 26.4014 3.34668C26.1735 3.34668 25.9733 3.38574 25.8008 3.46387C25.6315 3.54199 25.498 3.64453 25.4004 3.77148C25.306 3.89844 25.2588 4.03516 25.2588 4.18164H24.3555C24.3555 3.99284 24.4043 3.80566 24.502 3.62012C24.5996 3.43457 24.7396 3.26693 24.9219 3.11719C25.1074 2.96419 25.3288 2.84375 25.5859 2.75586C25.8464 2.66471 26.1361 2.61914 26.4551 2.61914C26.8392 2.61914 27.1777 2.68424 27.4707 2.81445C27.7669 2.94466 27.998 3.1416 28.1641 3.40527C28.3333 3.66569 28.418 3.99284 28.418 4.38672V6.84766C28.418 7.02344 28.4326 7.21061 28.4619 7.40918C28.4945 7.60775 28.5417 7.77865 28.6035 7.92188V8H27.6611C27.6156 7.89583 27.5798 7.75749 27.5537 7.58496C27.5277 7.40918 27.5146 7.24642 27.5146 7.09668ZM27.6709 4.79688L27.6807 5.43164H26.7676C26.5104 5.43164 26.2809 5.4528 26.0791 5.49512C25.8773 5.53418 25.708 5.5944 25.5713 5.67578C25.4346 5.75716 25.3304 5.8597 25.2588 5.9834C25.1872 6.10384 25.1514 6.24544 25.1514 6.4082C25.1514 6.57422 25.1888 6.72559 25.2637 6.8623C25.3385 6.99902 25.4508 7.10807 25.6006 7.18945C25.7536 7.26758 25.9408 7.30664 26.1621 7.30664C26.4388 7.30664 26.6829 7.24805 26.8945 7.13086C27.1061 7.01367 27.2738 6.87044 27.3975 6.70117C27.5244 6.5319 27.5928 6.36751 27.6025 6.20801L27.9883 6.64258C27.9655 6.7793 27.9036 6.93066 27.8027 7.09668C27.7018 7.2627 27.5667 7.4222 27.3975 7.5752C27.2314 7.72493 27.0329 7.85026 26.8018 7.95117C26.5739 8.04883 26.3167 8.09766 26.0303 8.09766C25.6722 8.09766 25.3581 8.02767 25.0879 7.8877C24.821 7.74772 24.6126 7.56055 24.4629 7.32617C24.3164 7.08854 24.2432 6.82324 24.2432 6.53027C24.2432 6.24707 24.2985 5.99805 24.4092 5.7832C24.5199 5.5651 24.6794 5.38444 24.8877 5.24121C25.096 5.09473 25.3467 4.98405 25.6396 4.90918C25.9326 4.83431 26.2598 4.79688 26.6211 4.79688H27.6709ZM30.8203 0.5V8H29.9121V0.5H30.8203ZM33.1787 0.5V8H32.2705V0.5H33.1787ZM36.4062 2.7168L34.1016 5.18262L32.8125 6.52051L32.7393 5.55859L33.6621 4.45508L35.3027 2.7168H36.4062ZM35.5811 8L33.6963 5.48047L34.165 4.6748L36.6455 8H35.5811ZM38.3203 2.7168V8H37.4121V2.7168H38.3203ZM37.3438 1.31543C37.3438 1.16895 37.3877 1.04525 37.4756 0.944336C37.5667 0.843424 37.7002 0.792969 37.876 0.792969C38.0485 0.792969 38.1803 0.843424 38.2715 0.944336C38.3659 1.04525 38.4131 1.16895 38.4131 1.31543C38.4131 1.4554 38.3659 1.57585 38.2715 1.67676C38.1803 1.77441 38.0485 1.82324 37.876 1.82324C37.7002 1.82324 37.5667 1.77441 37.4756 1.67676C37.3877 1.57585 37.3438 1.4554 37.3438 1.31543ZM40.6738 3.84473V8H39.7705V2.7168H40.625L40.6738 3.84473ZM40.459 5.1582L40.083 5.14355C40.0863 4.78223 40.14 4.44857 40.2441 4.14258C40.3483 3.83333 40.4948 3.56478 40.6836 3.33691C40.8724 3.10905 41.097 2.93327 41.3574 2.80957C41.6211 2.68262 41.9124 2.61914 42.2314 2.61914C42.4919 2.61914 42.7262 2.65495 42.9346 2.72656C43.1429 2.79492 43.3203 2.9056 43.4668 3.05859C43.6165 3.21159 43.7305 3.41016 43.8086 3.6543C43.8867 3.89518 43.9258 4.18978 43.9258 4.53809V8H43.0176V4.52832C43.0176 4.25163 42.9769 4.03027 42.8955 3.86426C42.8141 3.69499 42.6953 3.57292 42.5391 3.49805C42.3828 3.41992 42.1908 3.38086 41.9629 3.38086C41.7383 3.38086 41.5332 3.42806 41.3477 3.52246C41.1654 3.61686 41.0075 3.74707 40.874 3.91309C40.7438 4.0791 40.6413 4.26953 40.5664 4.48438C40.4948 4.69596 40.459 4.92057 40.459 5.1582ZM48.7207 2.7168H49.541V7.8877C49.541 8.35319 49.4466 8.75033 49.2578 9.0791C49.069 9.40788 48.8053 9.6569 48.4668 9.82617C48.1315 9.9987 47.7441 10.085 47.3047 10.085C47.1224 10.085 46.9076 10.0557 46.6602 9.99707C46.416 9.94173 46.1751 9.8457 45.9375 9.70898C45.7031 9.57552 45.5062 9.39486 45.3467 9.16699L45.8203 8.62988C46.0417 8.89681 46.2728 9.08236 46.5137 9.18652C46.7578 9.29069 46.9987 9.34277 47.2363 9.34277C47.5228 9.34277 47.7702 9.28906 47.9785 9.18164C48.1868 9.07422 48.348 8.91471 48.4619 8.70312C48.5791 8.49479 48.6377 8.23763 48.6377 7.93164V3.87891L48.7207 2.7168ZM45.083 5.41699V5.31445C45.083 4.91081 45.1302 4.5446 45.2246 4.21582C45.3223 3.88379 45.4606 3.59896 45.6396 3.36133C45.8219 3.1237 46.0417 2.94141 46.2988 2.81445C46.556 2.68424 46.8457 2.61914 47.168 2.61914C47.5 2.61914 47.7897 2.67773 48.0371 2.79492C48.2878 2.90885 48.4993 3.0765 48.6719 3.29785C48.8477 3.51595 48.986 3.77962 49.0869 4.08887C49.1878 4.39811 49.2578 4.74805 49.2969 5.13867V5.58789C49.2611 5.97526 49.1911 6.32357 49.0869 6.63281C48.986 6.94206 48.8477 7.20573 48.6719 7.42383C48.4993 7.64193 48.2878 7.80957 48.0371 7.92676C47.7865 8.04069 47.4935 8.09766 47.1582 8.09766C46.8424 8.09766 46.556 8.03092 46.2988 7.89746C46.0449 7.764 45.8268 7.57682 45.6445 7.33594C45.4622 7.09505 45.3223 6.81185 45.2246 6.48633C45.1302 6.15755 45.083 5.80111 45.083 5.41699ZM45.9863 5.31445V5.41699C45.9863 5.68066 46.0124 5.92806 46.0645 6.15918C46.1198 6.3903 46.2028 6.59375 46.3135 6.76953C46.4274 6.94531 46.5723 7.08366 46.748 7.18457C46.9238 7.28223 47.1338 7.33105 47.3779 7.33105C47.6774 7.33105 47.9248 7.26758 48.1201 7.14062C48.3154 7.01367 48.4701 6.84603 48.584 6.6377C48.7012 6.42936 48.7923 6.20312 48.8574 5.95898V4.78223C48.8216 4.60319 48.7663 4.43066 48.6914 4.26465C48.6198 4.09538 48.5254 3.94564 48.4082 3.81543C48.2943 3.68197 48.1527 3.57617 47.9834 3.49805C47.8141 3.41992 47.6156 3.38086 47.3877 3.38086C47.1403 3.38086 46.9271 3.43294 46.748 3.53711C46.5723 3.63802 46.4274 3.77799 46.3135 3.95703C46.2028 4.13281 46.1198 4.33789 46.0645 4.57227C46.0124 4.80339 45.9863 5.05078 45.9863 5.31445Z" fill="#323232" fill-opacity="0.75"/>
<path d="M78.8086 5.9248V0.890625H79.7461V5.9248C79.7461 6.39355 79.6501 6.78906 79.458 7.11133C79.266 7.43359 79.0007 7.67936 78.6621 7.84863C78.3268 8.01465 77.9411 8.09766 77.5049 8.09766C77.0687 8.09766 76.6813 8.02279 76.3428 7.87305C76.0042 7.72331 75.7389 7.49544 75.5469 7.18945C75.3548 6.88346 75.2588 6.49772 75.2588 6.03223H76.2012C76.2012 6.33171 76.2565 6.57747 76.3672 6.76953C76.4779 6.96159 76.6309 7.10319 76.8262 7.19434C77.0247 7.28548 77.251 7.33105 77.5049 7.33105C77.7523 7.33105 77.9736 7.27897 78.1689 7.1748C78.3675 7.06738 78.5238 6.90951 78.6377 6.70117C78.7516 6.48958 78.8086 6.23079 78.8086 5.9248ZM80.9668 5.41699V5.30469C80.9668 4.92383 81.0221 4.57064 81.1328 4.24512C81.2435 3.91634 81.403 3.63151 81.6113 3.39062C81.8197 3.14648 82.0719 2.95768 82.3682 2.82422C82.6644 2.6875 82.9964 2.61914 83.3643 2.61914C83.7354 2.61914 84.069 2.6875 84.3652 2.82422C84.6647 2.95768 84.9186 3.14648 85.127 3.39062C85.3385 3.63151 85.4997 3.91634 85.6104 4.24512C85.721 4.57064 85.7764 4.92383 85.7764 5.30469V5.41699C85.7764 5.79785 85.721 6.15104 85.6104 6.47656C85.4997 6.80208 85.3385 7.08691 85.127 7.33105C84.9186 7.57194 84.6663 7.76074 84.3701 7.89746C84.0771 8.03092 83.7451 8.09766 83.374 8.09766C83.0029 8.09766 82.6693 8.03092 82.373 7.89746C82.0768 7.76074 81.8229 7.57194 81.6113 7.33105C81.403 7.08691 81.2435 6.80208 81.1328 6.47656C81.0221 6.15104 80.9668 5.79785 80.9668 5.41699ZM81.8701 5.30469V5.41699C81.8701 5.68066 81.901 5.92969 81.9629 6.16406C82.0247 6.39518 82.1175 6.60026 82.2412 6.7793C82.3682 6.95833 82.526 7.09993 82.7148 7.2041C82.9036 7.30501 83.1234 7.35547 83.374 7.35547C83.6214 7.35547 83.8379 7.30501 84.0234 7.2041C84.2122 7.09993 84.3685 6.95833 84.4922 6.7793C84.6159 6.60026 84.7087 6.39518 84.7705 6.16406C84.8356 5.92969 84.8682 5.68066 84.8682 5.41699V5.30469C84.8682 5.04427 84.8356 4.7985 84.7705 4.56738C84.7087 4.33301 84.6143 4.1263 84.4873 3.94727C84.3636 3.76497 84.2074 3.62174 84.0186 3.51758C83.833 3.41341 83.6149 3.36133 83.3643 3.36133C83.1169 3.36133 82.8988 3.41341 82.71 3.51758C82.5244 3.62174 82.3682 3.76497 82.2412 3.94727C82.1175 4.1263 82.0247 4.33301 81.9629 4.56738C81.901 4.7985 81.8701 5.04427 81.8701 5.30469ZM90.332 2.7168H91.1523V7.8877C91.1523 8.35319 91.0579 8.75033 90.8691 9.0791C90.6803 9.40788 90.4167 9.6569 90.0781 9.82617C89.7428 9.9987 89.3555 10.085 88.916 10.085C88.7337 10.085 88.5189 10.0557 88.2715 9.99707C88.0273 9.94173 87.7865 9.8457 87.5488 9.70898C87.3145 9.57552 87.1175 9.39486 86.958 9.16699L87.4316 8.62988C87.653 8.89681 87.8841 9.08236 88.125 9.18652C88.3691 9.29069 88.61 9.34277 88.8477 9.34277C89.1341 9.34277 89.3815 9.28906 89.5898 9.18164C89.7982 9.07422 89.9593 8.91471 90.0732 8.70312C90.1904 8.49479 90.249 8.23763 90.249 7.93164V3.87891L90.332 2.7168ZM86.6943 5.41699V5.31445C86.6943 4.91081 86.7415 4.5446 86.8359 4.21582C86.9336 3.88379 87.0719 3.59896 87.251 3.36133C87.4333 3.1237 87.653 2.94141 87.9102 2.81445C88.1673 2.68424 88.457 2.61914 88.7793 2.61914C89.1113 2.61914 89.401 2.67773 89.6484 2.79492C89.8991 2.90885 90.1107 3.0765 90.2832 3.29785C90.459 3.51595 90.5973 3.77962 90.6982 4.08887C90.7992 4.39811 90.8691 4.74805 90.9082 5.13867V5.58789C90.8724 5.97526 90.8024 6.32357 90.6982 6.63281C90.5973 6.94206 90.459 7.20573 90.2832 7.42383C90.1107 7.64193 89.8991 7.80957 89.6484 7.92676C89.3978 8.04069 89.1048 8.09766 88.7695 8.09766C88.4538 8.09766 88.1673 8.03092 87.9102 7.89746C87.6562 7.764 87.4382 7.57682 87.2559 7.33594C87.0736 7.09505 86.9336 6.81185 86.8359 6.48633C86.7415 6.15755 86.6943 5.80111 86.6943 5.41699ZM87.5977 5.31445V5.41699C87.5977 5.68066 87.6237 5.92806 87.6758 6.15918C87.7311 6.3903 87.8141 6.59375 87.9248 6.76953C88.0387 6.94531 88.1836 7.08366 88.3594 7.18457C88.5352 7.28223 88.7451 7.33105 88.9893 7.33105C89.2887 7.33105 89.5361 7.26758 89.7314 7.14062C89.9268 7.01367 90.0814 6.84603 90.1953 6.6377C90.3125 6.42936 90.4036 6.20312 90.4688 5.95898V4.78223C90.4329 4.60319 90.3776 4.43066 90.3027 4.26465C90.2311 4.09538 90.1367 3.94564 90.0195 3.81543C89.9056 3.68197 89.764 3.57617 89.5947 3.49805C89.4255 3.41992 89.2269 3.38086 88.999 3.38086C88.7516 3.38086 88.5384 3.43294 88.3594 3.53711C88.1836 3.63802 88.0387 3.77799 87.9248 3.95703C87.8141 4.13281 87.7311 4.33789 87.6758 4.57227C87.6237 4.80339 87.5977 5.05078 87.5977 5.31445ZM95.9473 2.7168H96.7676V7.8877C96.7676 8.35319 96.6732 8.75033 96.4844 9.0791C96.2956 9.40788 96.0319 9.6569 95.6934 9.82617C95.3581 9.9987 94.9707 10.085 94.5312 10.085C94.349 10.085 94.1341 10.0557 93.8867 9.99707C93.6426 9.94173 93.4017 9.8457 93.1641 9.70898C92.9297 9.57552 92.7327 9.39486 92.5732 9.16699L93.0469 8.62988C93.2682 8.89681 93.4993 9.08236 93.7402 9.18652C93.9844 9.29069 94.2253 9.34277 94.4629 9.34277C94.7493 9.34277 94.9967 9.28906 95.2051 9.18164C95.4134 9.07422 95.5745 8.91471 95.6885 8.70312C95.8057 8.49479 95.8643 8.23763 95.8643 7.93164V3.87891L95.9473 2.7168ZM92.3096 5.41699V5.31445C92.3096 4.91081 92.3568 4.5446 92.4512 4.21582C92.5488 3.88379 92.6872 3.59896 92.8662 3.36133C93.0485 3.1237 93.2682 2.94141 93.5254 2.81445C93.7826 2.68424 94.0723 2.61914 94.3945 2.61914C94.7266 2.61914 95.0163 2.67773 95.2637 2.79492C95.5143 2.90885 95.7259 3.0765 95.8984 3.29785C96.0742 3.51595 96.2126 3.77962 96.3135 4.08887C96.4144 4.39811 96.4844 4.74805 96.5234 5.13867V5.58789C96.4876 5.97526 96.4176 6.32357 96.3135 6.63281C96.2126 6.94206 96.0742 7.20573 95.8984 7.42383C95.7259 7.64193 95.5143 7.80957 95.2637 7.92676C95.013 8.04069 94.7201 8.09766 94.3848 8.09766C94.069 8.09766 93.7826 8.03092 93.5254 7.89746C93.2715 7.764 93.0534 7.57682 92.8711 7.33594C92.6888 7.09505 92.5488 6.81185 92.4512 6.48633C92.3568 6.15755 92.3096 5.80111 92.3096 5.41699ZM93.2129 5.31445V5.41699C93.2129 5.68066 93.2389 5.92806 93.291 6.15918C93.3464 6.3903 93.4294 6.59375 93.54 6.76953C93.654 6.94531 93.7988 7.08366 93.9746 7.18457C94.1504 7.28223 94.3604 7.33105 94.6045 7.33105C94.904 7.33105 95.1514 7.26758 95.3467 7.14062C95.542 7.01367 95.6966 6.84603 95.8105 6.6377C95.9277 6.42936 96.0189 6.20312 96.084 5.95898V4.78223C96.0482 4.60319 95.9928 4.43066 95.918 4.26465C95.8464 4.09538 95.752 3.94564 95.6348 3.81543C95.5208 3.68197 95.3792 3.57617 95.21 3.49805C95.0407 3.41992 94.8421 3.38086 94.6143 3.38086C94.3669 3.38086 94.1536 3.43294 93.9746 3.53711C93.7988 3.63802 93.654 3.77799 93.54 3.95703C93.4294 4.13281 93.3464 4.33789 93.291 4.57227C93.2389 4.80339 93.2129 5.05078 93.2129 5.31445ZM99.1211 2.7168V8H98.2129V2.7168H99.1211ZM98.1445 1.31543C98.1445 1.16895 98.1885 1.04525 98.2764 0.944336C98.3675 0.843424 98.501 0.792969 98.6768 0.792969C98.8493 0.792969 98.9811 0.843424 99.0723 0.944336C99.1667 1.04525 99.2139 1.16895 99.2139 1.31543C99.2139 1.4554 99.1667 1.57585 99.0723 1.67676C98.9811 1.77441 98.8493 1.82324 98.6768 1.82324C98.501 1.82324 98.3675 1.77441 98.2764 1.67676C98.1885 1.57585 98.1445 1.4554 98.1445 1.31543ZM101.475 3.84473V8H100.571V2.7168H101.426L101.475 3.84473ZM101.26 5.1582L100.884 5.14355C100.887 4.78223 100.941 4.44857 101.045 4.14258C101.149 3.83333 101.296 3.56478 101.484 3.33691C101.673 3.10905 101.898 2.93327 102.158 2.80957C102.422 2.68262 102.713 2.61914 103.032 2.61914C103.293 2.61914 103.527 2.65495 103.735 2.72656C103.944 2.79492 104.121 2.9056 104.268 3.05859C104.417 3.21159 104.531 3.41016 104.609 3.6543C104.688 3.89518 104.727 4.18978 104.727 4.53809V8H103.818V4.52832C103.818 4.25163 103.778 4.03027 103.696 3.86426C103.615 3.69499 103.496 3.57292 103.34 3.49805C103.184 3.41992 102.992 3.38086 102.764 3.38086C102.539 3.38086 102.334 3.42806 102.148 3.52246C101.966 3.61686 101.808 3.74707 101.675 3.91309C101.545 4.0791 101.442 4.26953 101.367 4.48438C101.296 4.69596 101.26 4.92057 101.26 5.1582ZM109.521 2.7168H110.342V7.8877C110.342 8.35319 110.247 8.75033 110.059 9.0791C109.87 9.40788 109.606 9.6569 109.268 9.82617C108.932 9.9987 108.545 10.085 108.105 10.085C107.923 10.085 107.708 10.0557 107.461 9.99707C107.217 9.94173 106.976 9.8457 106.738 9.70898C106.504 9.57552 106.307 9.39486 106.147 9.16699L106.621 8.62988C106.842 8.89681 107.074 9.08236 107.314 9.18652C107.559 9.29069 107.799 9.34277 108.037 9.34277C108.324 9.34277 108.571 9.28906 108.779 9.18164C108.988 9.07422 109.149 8.91471 109.263 8.70312C109.38 8.49479 109.438 8.23763 109.438 7.93164V3.87891L109.521 2.7168ZM105.884 5.41699V5.31445C105.884 4.91081 105.931 4.5446 106.025 4.21582C106.123 3.88379 106.261 3.59896 106.44 3.36133C106.623 3.1237 106.842 2.94141 107.1 2.81445C107.357 2.68424 107.646 2.61914 107.969 2.61914C108.301 2.61914 108.59 2.67773 108.838 2.79492C109.089 2.90885 109.3 3.0765 109.473 3.29785C109.648 3.51595 109.787 3.77962 109.888 4.08887C109.989 4.39811 110.059 4.74805 110.098 5.13867V5.58789C110.062 5.97526 109.992 6.32357 109.888 6.63281C109.787 6.94206 109.648 7.20573 109.473 7.42383C109.3 7.64193 109.089 7.80957 108.838 7.92676C108.587 8.04069 108.294 8.09766 107.959 8.09766C107.643 8.09766 107.357 8.03092 107.1 7.89746C106.846 7.764 106.628 7.57682 106.445 7.33594C106.263 7.09505 106.123 6.81185 106.025 6.48633C105.931 6.15755 105.884 5.80111 105.884 5.41699ZM106.787 5.31445V5.41699C106.787 5.68066 106.813 5.92806 106.865 6.15918C106.921 6.3903 107.004 6.59375 107.114 6.76953C107.228 6.94531 107.373 7.08366 107.549 7.18457C107.725 7.28223 107.935 7.33105 108.179 7.33105C108.478 7.33105 108.726 7.26758 108.921 7.14062C109.116 7.01367 109.271 6.84603 109.385 6.6377C109.502 6.42936 109.593 6.20312 109.658 5.95898V4.78223C109.622 4.60319 109.567 4.43066 109.492 4.26465C109.421 4.09538 109.326 3.94564 109.209 3.81543C109.095 3.68197 108.953 3.57617 108.784 3.49805C108.615 3.41992 108.416 3.38086 108.188 3.38086C107.941 3.38086 107.728 3.43294 107.549 3.53711C107.373 3.63802 107.228 3.77799 107.114 3.95703C107.004 4.13281 106.921 4.33789 106.865 4.57227C106.813 4.80339 106.787 5.05078 106.787 5.31445Z" fill="#323232" fill-opacity="0.75"/>
<path d="M141.137 7.2334V8H137.582V7.2334H141.137ZM137.768 0.890625V8H136.825V0.890625H137.768ZM143.061 2.7168V8H142.152V2.7168H143.061ZM142.084 1.31543C142.084 1.16895 142.128 1.04525 142.216 0.944336C142.307 0.843424 142.44 0.792969 142.616 0.792969C142.789 0.792969 142.921 0.843424 143.012 0.944336C143.106 1.04525 143.153 1.16895 143.153 1.31543C143.153 1.4554 143.106 1.57585 143.012 1.67676C142.921 1.77441 142.789 1.82324 142.616 1.82324C142.44 1.82324 142.307 1.77441 142.216 1.67676C142.128 1.57585 142.084 1.4554 142.084 1.31543ZM145.858 8H144.955V2.16016C144.955 1.7793 145.023 1.45866 145.16 1.19824C145.3 0.93457 145.5 0.736003 145.761 0.602539C146.021 0.46582 146.33 0.397461 146.688 0.397461C146.793 0.397461 146.897 0.403971 147.001 0.416992C147.108 0.430013 147.213 0.449544 147.313 0.475586L147.265 1.21289C147.196 1.19661 147.118 1.18522 147.03 1.17871C146.946 1.1722 146.861 1.16895 146.776 1.16895C146.584 1.16895 146.418 1.20801 146.278 1.28613C146.142 1.361 146.037 1.47168 145.966 1.61816C145.894 1.76465 145.858 1.94531 145.858 2.16016V8ZM146.981 2.7168V3.41016H144.12V2.7168H146.981ZM150.199 2.7168V3.41016H147.343V2.7168H150.199ZM148.31 1.43262H149.213V6.69141C149.213 6.87044 149.241 7.00553 149.296 7.09668C149.351 7.18783 149.423 7.24805 149.511 7.27734C149.599 7.30664 149.693 7.32129 149.794 7.32129C149.869 7.32129 149.947 7.31478 150.028 7.30176C150.113 7.28548 150.176 7.27246 150.219 7.2627L150.224 8C150.152 8.02279 150.058 8.04395 149.94 8.06348C149.826 8.08626 149.688 8.09766 149.525 8.09766C149.304 8.09766 149.101 8.05371 148.915 7.96582C148.729 7.87793 148.581 7.73145 148.471 7.52637C148.363 7.31803 148.31 7.03809 148.31 6.68652V1.43262ZM152.24 2.7168V8H151.332V2.7168H152.24ZM151.264 1.31543C151.264 1.16895 151.308 1.04525 151.396 0.944336C151.487 0.843424 151.62 0.792969 151.796 0.792969C151.968 0.792969 152.1 0.843424 152.191 0.944336C152.286 1.04525 152.333 1.16895 152.333 1.31543C152.333 1.4554 152.286 1.57585 152.191 1.67676C152.1 1.77441 151.968 1.82324 151.796 1.82324C151.62 1.82324 151.487 1.77441 151.396 1.67676C151.308 1.57585 151.264 1.4554 151.264 1.31543ZM154.594 3.84473V8H153.69V2.7168H154.545L154.594 3.84473ZM154.379 5.1582L154.003 5.14355C154.006 4.78223 154.06 4.44857 154.164 4.14258C154.268 3.83333 154.415 3.56478 154.604 3.33691C154.792 3.10905 155.017 2.93327 155.277 2.80957C155.541 2.68262 155.832 2.61914 156.151 2.61914C156.412 2.61914 156.646 2.65495 156.854 2.72656C157.063 2.79492 157.24 2.9056 157.387 3.05859C157.536 3.21159 157.65 3.41016 157.729 3.6543C157.807 3.89518 157.846 4.18978 157.846 4.53809V8H156.938V4.52832C156.938 4.25163 156.897 4.03027 156.815 3.86426C156.734 3.69499 156.615 3.57292 156.459 3.49805C156.303 3.41992 156.111 3.38086 155.883 3.38086C155.658 3.38086 155.453 3.42806 155.268 3.52246C155.085 3.61686 154.927 3.74707 154.794 3.91309C154.664 4.0791 154.561 4.26953 154.486 4.48438C154.415 4.69596 154.379 4.92057 154.379 5.1582ZM162.641 2.7168H163.461V7.8877C163.461 8.35319 163.367 8.75033 163.178 9.0791C162.989 9.40788 162.725 9.6569 162.387 9.82617C162.051 9.9987 161.664 10.085 161.225 10.085C161.042 10.085 160.827 10.0557 160.58 9.99707C160.336 9.94173 160.095 9.8457 159.857 9.70898C159.623 9.57552 159.426 9.39486 159.267 9.16699L159.74 8.62988C159.962 8.89681 160.193 9.08236 160.434 9.18652C160.678 9.29069 160.919 9.34277 161.156 9.34277C161.443 9.34277 161.69 9.28906 161.898 9.18164C162.107 9.07422 162.268 8.91471 162.382 8.70312C162.499 8.49479 162.558 8.23763 162.558 7.93164V3.87891L162.641 2.7168ZM159.003 5.41699V5.31445C159.003 4.91081 159.05 4.5446 159.145 4.21582C159.242 3.88379 159.381 3.59896 159.56 3.36133C159.742 3.1237 159.962 2.94141 160.219 2.81445C160.476 2.68424 160.766 2.61914 161.088 2.61914C161.42 2.61914 161.71 2.67773 161.957 2.79492C162.208 2.90885 162.419 3.0765 162.592 3.29785C162.768 3.51595 162.906 3.77962 163.007 4.08887C163.108 4.39811 163.178 4.74805 163.217 5.13867V5.58789C163.181 5.97526 163.111 6.32357 163.007 6.63281C162.906 6.94206 162.768 7.20573 162.592 7.42383C162.419 7.64193 162.208 7.80957 161.957 7.92676C161.706 8.04069 161.413 8.09766 161.078 8.09766C160.762 8.09766 160.476 8.03092 160.219 7.89746C159.965 7.764 159.747 7.57682 159.564 7.33594C159.382 7.09505 159.242 6.81185 159.145 6.48633C159.05 6.15755 159.003 5.80111 159.003 5.41699ZM159.906 5.31445V5.41699C159.906 5.68066 159.932 5.92806 159.984 6.15918C160.04 6.3903 160.123 6.59375 160.233 6.76953C160.347 6.94531 160.492 7.08366 160.668 7.18457C160.844 7.28223 161.054 7.33105 161.298 7.33105C161.597 7.33105 161.845 7.26758 162.04 7.14062C162.235 7.01367 162.39 6.84603 162.504 6.6377C162.621 6.42936 162.712 6.20312 162.777 5.95898V4.78223C162.742 4.60319 162.686 4.43066 162.611 4.26465C162.54 4.09538 162.445 3.94564 162.328 3.81543C162.214 3.68197 162.073 3.57617 161.903 3.49805C161.734 3.41992 161.535 3.38086 161.308 3.38086C161.06 3.38086 160.847 3.43294 160.668 3.53711C160.492 3.63802 160.347 3.77799 160.233 3.95703C160.123 4.13281 160.04 4.33789 159.984 4.57227C159.932 4.80339 159.906 5.05078 159.906 5.31445Z" fill="#323232" fill-opacity="0.75"/>
<path d="M194.596 7.2334V8H189.781V7.2334H194.596ZM194.439 1.57422L190.006 8H189.425V7.29688L193.854 0.890625H194.439V1.57422ZM194.039 0.890625V1.66211H189.488V0.890625H194.039ZM198.819 6.7793V2.7168H199.728V8H198.863L198.819 6.7793ZM198.99 5.66602L199.366 5.65625C199.366 6.00781 199.329 6.33333 199.254 6.63281C199.182 6.92904 199.065 7.1862 198.902 7.4043C198.74 7.6224 198.526 7.79329 198.263 7.91699C197.999 8.03743 197.678 8.09766 197.301 8.09766C197.044 8.09766 196.808 8.06022 196.593 7.98535C196.381 7.91048 196.199 7.79492 196.046 7.63867C195.893 7.48242 195.774 7.27897 195.689 7.02832C195.608 6.77767 195.567 6.47656 195.567 6.125V2.7168H196.471V6.13477C196.471 6.3724 196.497 6.56934 196.549 6.72559C196.604 6.87858 196.677 7.00065 196.769 7.0918C196.863 7.17969 196.967 7.24154 197.081 7.27734C197.198 7.31315 197.319 7.33105 197.442 7.33105C197.826 7.33105 198.131 7.25781 198.355 7.11133C198.58 6.96159 198.741 6.76139 198.839 6.51074C198.94 6.25684 198.99 5.97526 198.99 5.66602ZM202.003 3.7666V8H201.095V2.7168H201.954L202.003 3.7666ZM201.817 5.1582L201.397 5.14355C201.401 4.78223 201.448 4.44857 201.539 4.14258C201.63 3.83333 201.765 3.56478 201.944 3.33691C202.123 3.10905 202.346 2.93327 202.613 2.80957C202.88 2.68262 203.189 2.61914 203.541 2.61914C203.788 2.61914 204.016 2.65495 204.225 2.72656C204.433 2.79492 204.614 2.90397 204.767 3.05371C204.92 3.20345 205.038 3.39551 205.123 3.62988C205.208 3.86426 205.25 4.14746 205.25 4.47949V8H204.347V4.52344C204.347 4.24674 204.299 4.02539 204.205 3.85938C204.114 3.69336 203.984 3.57292 203.814 3.49805C203.645 3.41992 203.447 3.38086 203.219 3.38086C202.952 3.38086 202.729 3.42806 202.55 3.52246C202.371 3.61686 202.228 3.74707 202.12 3.91309C202.013 4.0791 201.935 4.26953 201.886 4.48438C201.84 4.69596 201.817 4.92057 201.817 5.1582ZM205.24 4.66016L204.635 4.8457C204.638 4.55599 204.685 4.27767 204.776 4.01074C204.871 3.74382 205.006 3.50618 205.182 3.29785C205.361 3.08952 205.58 2.92513 205.841 2.80469C206.101 2.68099 206.399 2.61914 206.734 2.61914C207.018 2.61914 207.268 2.65658 207.486 2.73145C207.708 2.80632 207.893 2.92188 208.043 3.07812C208.196 3.23112 208.312 3.42806 208.39 3.66895C208.468 3.90983 208.507 4.19629 208.507 4.52832V8H207.599V4.51855C207.599 4.22233 207.551 3.99284 207.457 3.83008C207.366 3.66406 207.236 3.5485 207.066 3.4834C206.9 3.41504 206.702 3.38086 206.471 3.38086C206.272 3.38086 206.096 3.41504 205.943 3.4834C205.79 3.55176 205.662 3.64616 205.558 3.7666C205.453 3.88379 205.374 4.01888 205.318 4.17188C205.266 4.32487 205.24 4.48763 205.24 4.66016ZM209.869 0.5H210.777V6.97461L210.699 8H209.869V0.5ZM214.347 5.31445V5.41699C214.347 5.80111 214.301 6.15755 214.21 6.48633C214.119 6.81185 213.985 7.09505 213.81 7.33594C213.634 7.57682 213.419 7.764 213.165 7.89746C212.911 8.03092 212.62 8.09766 212.291 8.09766C211.956 8.09766 211.661 8.04069 211.407 7.92676C211.157 7.80957 210.945 7.64193 210.772 7.42383C210.6 7.20573 210.462 6.94206 210.357 6.63281C210.257 6.32357 210.187 5.97526 210.147 5.58789V5.13867C210.187 4.74805 210.257 4.39811 210.357 4.08887C210.462 3.77962 210.6 3.51595 210.772 3.29785C210.945 3.0765 211.157 2.90885 211.407 2.79492C211.658 2.67773 211.949 2.61914 212.281 2.61914C212.613 2.61914 212.908 2.68424 213.165 2.81445C213.422 2.94141 213.637 3.1237 213.81 3.36133C213.985 3.59896 214.119 3.88379 214.21 4.21582C214.301 4.5446 214.347 4.91081 214.347 5.31445ZM213.438 5.41699V5.31445C213.438 5.05078 213.414 4.80339 213.365 4.57227C213.316 4.33789 213.238 4.13281 213.131 3.95703C213.023 3.77799 212.882 3.63802 212.706 3.53711C212.53 3.43294 212.314 3.38086 212.057 3.38086C211.829 3.38086 211.63 3.41992 211.461 3.49805C211.295 3.57617 211.153 3.68197 211.036 3.81543C210.919 3.94564 210.823 4.09538 210.748 4.26465C210.676 4.43066 210.623 4.60319 210.587 4.78223V5.95898C210.639 6.18685 210.724 6.40658 210.841 6.61816C210.961 6.8265 211.121 6.9974 211.319 7.13086C211.521 7.26432 211.77 7.33105 212.066 7.33105C212.311 7.33105 212.519 7.28223 212.691 7.18457C212.867 7.08366 213.009 6.94531 213.116 6.76953C213.227 6.59375 213.308 6.3903 213.36 6.15918C213.412 5.92806 213.438 5.68066 213.438 5.41699ZM218.604 7.09668V4.37695C218.604 4.16862 218.562 3.98796 218.478 3.83496C218.396 3.67871 218.272 3.55827 218.106 3.47363C217.94 3.389 217.735 3.34668 217.491 3.34668C217.263 3.34668 217.063 3.38574 216.891 3.46387C216.721 3.54199 216.588 3.64453 216.49 3.77148C216.396 3.89844 216.349 4.03516 216.349 4.18164H215.445C215.445 3.99284 215.494 3.80566 215.592 3.62012C215.689 3.43457 215.829 3.26693 216.012 3.11719C216.197 2.96419 216.419 2.84375 216.676 2.75586C216.936 2.66471 217.226 2.61914 217.545 2.61914C217.929 2.61914 218.268 2.68424 218.561 2.81445C218.857 2.94466 219.088 3.1416 219.254 3.40527C219.423 3.66569 219.508 3.99284 219.508 4.38672V6.84766C219.508 7.02344 219.522 7.21061 219.552 7.40918C219.584 7.60775 219.632 7.77865 219.693 7.92188V8H218.751C218.705 7.89583 218.67 7.75749 218.644 7.58496C218.618 7.40918 218.604 7.24642 218.604 7.09668ZM218.761 4.79688L218.771 5.43164H217.857C217.6 5.43164 217.371 5.4528 217.169 5.49512C216.967 5.53418 216.798 5.5944 216.661 5.67578C216.524 5.75716 216.42 5.8597 216.349 5.9834C216.277 6.10384 216.241 6.24544 216.241 6.4082C216.241 6.57422 216.279 6.72559 216.354 6.8623C216.428 6.99902 216.541 7.10807 216.69 7.18945C216.843 7.26758 217.031 7.30664 217.252 7.30664C217.529 7.30664 217.773 7.24805 217.984 7.13086C218.196 7.01367 218.364 6.87044 218.487 6.70117C218.614 6.5319 218.683 6.36751 218.692 6.20801L219.078 6.64258C219.055 6.7793 218.993 6.93066 218.893 7.09668C218.792 7.2627 218.657 7.4222 218.487 7.5752C218.321 7.72493 218.123 7.85026 217.892 7.95117C217.664 8.04883 217.407 8.09766 217.12 8.09766C216.762 8.09766 216.448 8.02767 216.178 7.8877C215.911 7.74772 215.702 7.56055 215.553 7.32617C215.406 7.08854 215.333 6.82324 215.333 6.53027C215.333 6.24707 215.388 5.99805 215.499 5.7832C215.61 5.5651 215.769 5.38444 215.978 5.24121C216.186 5.09473 216.437 4.98405 216.729 4.90918C217.022 4.83431 217.35 4.79688 217.711 4.79688H218.761Z" fill="#323232" fill-opacity="0.75"/>
<g filter="url(#filter0_i_798_704)">
<circle cx="5" cy="5" r="5" fill="#FE9D9D"/>
</g>
<g filter="url(#filter1_i_798_704)">
<circle cx="65" cy="5" r="5" fill="#DA9DFE"/>
</g>
<g filter="url(#filter2_i_798_704)">
<circle cx="126" cy="5" r="5" fill="#9DD2FE"/>
</g>
<g filter="url(#filter3_i_798_704)">
<circle cx="179" cy="5" r="5" fill="#9DFE9D"/>
</g>
<defs>
<filter id="filter0_i_798_704" x="0" y="0" width="10" height="14" filterUnits="userSpaceOnUse" color-interpolation-filters="sRGB">
<feFlood flood-opacity="0" result="BackgroundImageFix"/>
<feBlend mode="normal" in="SourceGraphic" in2="BackgroundImageFix" result="shape"/>
<feColorMatrix in="SourceAlpha" type="matrix" values="0 0 0 0 0 0 0 0 0 0 0 0 0 0 0 0 0 0 127 0" result="hardAlpha"/>
<feOffset dy="4"/>
<feGaussianBlur stdDeviation="2"/>
<feComposite in2="hardAlpha" operator="arithmetic" k2="-1" k3="1"/>
<feColorMatrix type="matrix" values="0 0 0 0 0 0 0 0 0 0 0 0 0 0 0 0 0 0 0.25 0"/>
<feBlend mode="normal" in2="shape" result="effect1_innerShadow_798_704"/>
</filter>
<filter id="filter1_i_798_704" x="60" y="0" width="10" height="14" filterUnits="userSpaceOnUse" color-interpolation-filters="sRGB">
<feFlood flood-opacity="0" result="BackgroundImageFix"/>
<feBlend mode="normal" in="SourceGraphic" in2="BackgroundImageFix" result="shape"/>
<feColorMatrix in="SourceAlpha" type="matrix" values="0 0 0 0 0 0 0 0 0 0 0 0 0 0 0 0 0 0 127 0" result="hardAlpha"/>
<feOffset dy="4"/>
<feGaussianBlur stdDeviation="2"/>
<feComposite in2="hardAlpha" operator="arithmetic" k2="-1" k3="1"/>
<feColorMatrix type="matrix" values="0 0 0 0 0 0 0 0 0 0 0 0 0 0 0 0 0 0 0.25 0"/>
<feBlend mode="normal" in2="shape" result="effect1_innerShadow_798_704"/>
</filter>
<filter id="filter2_i_798_704" x="121" y="0" width="10" height="14" filterUnits="userSpaceOnUse" color-interpolation-filters="sRGB">
<feFlood flood-opacity="0" result="BackgroundImageFix"/>
<feBlend mode="normal" in="SourceGraphic" in2="BackgroundImageFix" result="shape"/>
<feColorMatrix in="SourceAlpha" type="matrix" values="0 0 0 0 0 0 0 0 0 0 0 0 0 0 0 0 0 0 127 0" result="hardAlpha"/>
<feOffset dy="4"/>
<feGaussianBlur stdDeviation="2"/>
<feComposite in2="hardAlpha" operator="arithmetic" k2="-1" k3="1"/>
<feColorMatrix type="matrix" values="0 0 0 0 0 0 0 0 0 0 0 0 0 0 0 0 0 0 0.25 0"/>
<feBlend mode="normal" in2="shape" result="effect1_innerShadow_798_704"/>
</filter>
<filter id="filter3_i_798_704" x="174" y="0" width="10" height="14" filterUnits="userSpaceOnUse" color-interpolation-filters="sRGB">
<feFlood flood-opacity="0" result="BackgroundImageFix"/>
<feBlend mode="normal" in="SourceGraphic" in2="BackgroundImageFix" result="shape"/>
<feColorMatrix in="SourceAlpha" type="matrix" values="0 0 0 0 0 0 0 0 0 0 0 0 0 0 0 0 0 0 127 0" result="hardAlpha"/>
<feOffset dy="4"/>
<feGaussianBlur stdDeviation="2"/>
<feComposite in2="hardAlpha" operator="arithmetic" k2="-1" k3="1"/>
<feColorMatrix type="matrix" values="0 0 0 0 0 0 0 0 0 0 0 0 0 0 0 0 0 0 0.25 0"/>
<feBlend mode="normal" in2="shape" result="effect1_innerShadow_798_704"/>
</filter>
</defs>
</svg>
