<svg width="50" height="51" viewBox="0 0 50 51" fill="none" xmlns="http://www.w3.org/2000/svg">
<mask id="mask0_35_174" style="mask-type:alpha" maskUnits="userSpaceOnUse" x="0" y="0" width="50" height="51">
<rect y="0.964905" width="50" height="50" fill="#D9D9D9"/>
</mask>
<g mask="url(#mask0_35_174)">
<path d="M24.9999 42.6316C23.3333 41.3121 21.5277 40.2878 19.5833 39.5587C17.6388 38.8295 15.6249 38.4649 13.5416 38.4649C12.0833 38.4649 10.651 38.6559 9.24471 39.0378C7.83846 39.4198 6.49297 39.958 5.20825 40.6524C4.47909 41.0344 3.77596 41.017 3.09888 40.6003C2.42179 40.1837 2.08325 39.576 2.08325 38.7774V13.6732C2.08325 13.2913 2.17874 12.9267 2.36971 12.5795C2.56068 12.2323 2.84714 11.9719 3.22909 11.7982C4.82631 10.9649 6.49297 10.3399 8.22908 9.92324C9.9652 9.50657 11.736 9.29824 13.5416 9.29824C15.5555 9.29824 17.526 9.55866 19.453 10.0795C21.3801 10.6003 23.2291 11.3816 24.9999 12.4232V37.6316C26.7708 36.5205 28.6284 35.6871 30.5728 35.1316C32.5173 34.576 34.4791 34.2982 36.4583 34.2982C37.7083 34.2982 38.9322 34.4024 40.1301 34.6107C41.328 34.8191 42.5346 35.1316 43.7499 35.5482V10.5482C44.2708 10.7219 44.7829 10.9041 45.2864 11.0951C45.7898 11.2861 46.2846 11.5205 46.7708 11.7982C47.1527 11.9719 47.4392 12.2323 47.6301 12.5795C47.8211 12.9267 47.9166 13.2913 47.9166 13.6732V38.7774C47.9166 39.576 47.578 40.1837 46.901 40.6003C46.2239 41.017 45.5208 41.0344 44.7916 40.6524C43.5069 39.958 42.1614 39.4198 40.7551 39.0378C39.3489 38.6559 37.9166 38.4649 36.4583 38.4649C34.3749 38.4649 32.361 38.8295 30.4166 39.5587C28.4721 40.2878 26.6666 41.3121 24.9999 42.6316ZM29.1666 32.2149V12.4232L39.5833 2.00657V22.8399L29.1666 32.2149ZM20.8333 35.6003V14.9753C19.6874 14.4892 18.4982 14.1159 17.2655 13.8555C16.0329 13.5951 14.7916 13.4649 13.5416 13.4649C12.2569 13.4649 11.0069 13.5864 9.79158 13.8295C8.57631 14.0725 7.39575 14.4371 6.24992 14.9232V35.6003C7.4652 35.1489 8.67179 34.8191 9.86971 34.6107C11.0676 34.4024 12.2916 34.2982 13.5416 34.2982C14.7916 34.2982 16.0155 34.4024 17.2135 34.6107C18.4114 34.8191 19.618 35.1489 20.8333 35.6003Z" fill="#3878A6"/>
</g>
</svg>
