<svg width="50" height="50" viewBox="0 0 50 50" fill="none" xmlns="http://www.w3.org/2000/svg">
<mask id="mask0_35_185" style="mask-type:alpha" maskUnits="userSpaceOnUse" x="0" y="0" width="50" height="50">
<rect width="50" height="50" fill="#D9D9D9"/>
</mask>
<g mask="url(#mask0_35_185)">
<path d="M10.4167 43.75V39.5833H20.8334V35.4167C17.9515 35.4167 15.4949 34.401 13.4636 32.3698C11.4324 30.3385 10.4167 27.8819 10.4167 25C10.4167 22.8819 10.9983 20.9549 12.1615 19.2188C13.3247 17.4826 14.8959 16.2153 16.8751 15.4167C17.1529 14.2361 17.7692 13.2813 18.724 12.5521C19.6789 11.8229 20.764 11.4583 21.9792 11.4583L20.8334 8.22917L22.8126 7.50001L22.0834 5.62501L26.0417 4.16667L26.6667 6.14584L28.6459 5.41667L34.3751 21.0417L32.3959 21.7708L33.1251 23.75L29.1667 25.2083L28.5417 23.2292L26.5626 23.9583L25.3126 20.5208C24.7917 21.0069 24.1928 21.3715 23.5157 21.6146C22.8386 21.8576 22.1529 21.9444 21.4584 21.875C20.6945 21.8056 19.9827 21.5712 19.323 21.1719C18.6633 20.7726 18.0904 20.2778 17.6042 19.6875C16.6667 20.2431 15.9289 20.9896 15.3907 21.9271C14.8525 22.8646 14.5834 23.8889 14.5834 25C14.5834 26.7361 15.1911 28.2118 16.4063 29.4271C17.6216 30.6424 19.0973 31.25 20.8334 31.25H37.5001V35.4167H27.0834V39.5833H39.5834V43.75H10.4167ZM28.4376 19.8958L30.3126 19.1667L26.7709 9.375L24.7917 10.1042L28.4376 19.8958ZM21.8751 18.75C22.4654 18.75 22.9602 18.5504 23.3595 18.151C23.7588 17.7517 23.9584 17.2569 23.9584 16.6667C23.9584 16.0764 23.7588 15.5816 23.3595 15.1823C22.9602 14.783 22.4654 14.5833 21.8751 14.5833C21.2848 14.5833 20.79 14.783 20.3907 15.1823C19.9914 15.5816 19.7917 16.0764 19.7917 16.6667C19.7917 17.2569 19.9914 17.7517 20.3907 18.151C20.79 18.5504 21.2848 18.75 21.8751 18.75Z" fill="#3878A6"/>
</g>
</svg>
