<svg width="50" height="50" viewBox="0 0 50 50" fill="none" xmlns="http://www.w3.org/2000/svg">
<mask id="mask0_15_57" style="mask-type:alpha" maskUnits="userSpaceOnUse" x="0" y="0" width="50" height="50">
<rect width="50" height="50" fill="#D9D9D9"/>
</mask>
<g mask="url(#mask0_15_57)">
<path d="M12.4999 29.1667C11.3541 29.1667 10.3732 28.7587 9.55721 27.9427C8.74124 27.1267 8.33325 26.1458 8.33325 25C8.33325 23.8542 8.74124 22.8733 9.55721 22.0573C10.3732 21.2413 11.3541 20.8333 12.4999 20.8333C13.6458 20.8333 14.6267 21.2413 15.4426 22.0573C16.2586 22.8733 16.6666 23.8542 16.6666 25C16.6666 26.1458 16.2586 27.1267 15.4426 27.9427C14.6267 28.7587 13.6458 29.1667 12.4999 29.1667ZM24.9999 29.1667C23.8541 29.1667 22.8732 28.7587 22.0572 27.9427C21.2412 27.1267 20.8333 26.1458 20.8333 25C20.8333 23.8542 21.2412 22.8733 22.0572 22.0573C22.8732 21.2413 23.8541 20.8333 24.9999 20.8333C26.1458 20.8333 27.1267 21.2413 27.9426 22.0573C28.7586 22.8733 29.1666 23.8542 29.1666 25C29.1666 26.1458 28.7586 27.1267 27.9426 27.9427C27.1267 28.7587 26.1458 29.1667 24.9999 29.1667ZM37.4999 29.1667C36.3541 29.1667 35.3732 28.7587 34.5572 27.9427C33.7412 27.1267 33.3333 26.1458 33.3333 25C33.3333 23.8542 33.7412 22.8733 34.5572 22.0573C35.3732 21.2413 36.3541 20.8333 37.4999 20.8333C38.6458 20.8333 39.6267 21.2413 40.4426 22.0573C41.2586 22.8733 41.6666 23.8542 41.6666 25C41.6666 26.1458 41.2586 27.1267 40.4426 27.9427C39.6267 28.7587 38.6458 29.1667 37.4999 29.1667Z" fill="#3878A6"/>
</g>
</svg>
