<svg width="50" height="50" viewBox="0 0 50 50" fill="none" xmlns="http://www.w3.org/2000/svg">
<mask id="mask0_15_99" style="mask-type:alpha" maskUnits="userSpaceOnUse" x="0" y="0" width="50" height="50">
<rect width="50" height="50" fill="#D9D9D9"/>
</mask>
<g mask="url(#mask0_15_99)">
<path d="M43.0206 19.5313L40.1039 16.6146L41.6664 15L34.9998 8.33333L33.3852 9.89583L30.4164 6.92708L31.9789 5.3125C32.7775 4.51389 33.7671 4.12326 34.9477 4.14063C36.1282 4.15799 37.1178 4.56597 37.9164 5.36458L44.6352 12.0833C45.4338 12.8819 45.8331 13.8628 45.8331 15.026C45.8331 16.1892 45.4338 17.1701 44.6352 17.9688L43.0206 19.5313ZM18.0206 44.5833C17.222 45.3819 16.2411 45.7812 15.0779 45.7812C13.9147 45.7812 12.9338 45.3819 12.1352 44.5833L5.41642 37.8646C4.61781 37.066 4.21851 36.0851 4.21851 34.9219C4.21851 33.7587 4.61781 32.7778 5.41642 31.9792L6.97892 30.4167L9.94767 33.3854L8.33309 34.9479L15.0518 41.6667L16.6143 40.0521L19.5831 43.0208L18.0206 44.5833ZM38.6977 27.0833L41.6664 24.1146L25.8852 8.33333L22.9164 11.3021L38.6977 27.0833ZM24.1143 41.6667L27.0831 38.6458L11.3539 22.9167L8.33309 25.8854L24.1143 41.6667ZM23.8018 29.4792L29.531 23.8021L26.1977 20.4688L20.5206 26.1979L23.8018 29.4792ZM27.0831 44.5833C26.2845 45.3819 25.2949 45.7812 24.1143 45.7812C22.9338 45.7812 21.9442 45.3819 21.1456 44.5833L5.41642 28.8542C4.61781 28.0556 4.21851 27.066 4.21851 25.8854C4.21851 24.7049 4.61781 23.7153 5.41642 22.9167L8.38517 19.9479C9.18378 19.1493 10.1647 18.75 11.3279 18.75C12.4911 18.75 13.472 19.1493 14.2706 19.9479L17.5518 23.2292L23.281 17.5L19.9998 14.2708C19.2011 13.4722 18.8018 12.4826 18.8018 11.3021C18.8018 10.1215 19.2011 9.13195 19.9998 8.33333L22.9685 5.36458C23.7671 4.56597 24.748 4.16667 25.9112 4.16667C27.0744 4.16667 28.0553 4.56597 28.8539 5.36458L44.6352 21.1458C45.4338 21.9444 45.8331 22.9254 45.8331 24.0885C45.8331 25.2517 45.4338 26.2326 44.6352 27.0312L41.6664 30C40.8678 30.7986 39.8782 31.1979 38.6977 31.1979C37.5171 31.1979 36.5275 30.7986 35.7289 30L32.4998 26.7188L26.7706 32.4479L30.0518 35.7292C30.8505 36.5278 31.2498 37.5087 31.2498 38.6719C31.2498 39.8351 30.8505 40.816 30.0518 41.6146L27.0831 44.5833Z" fill="#3878A6"/>
</g>
</svg>
