<svg width="50" height="50" viewBox="0 0 50 50" fill="none" xmlns="http://www.w3.org/2000/svg">
<mask id="mask0_15_75" style="mask-type:alpha" maskUnits="userSpaceOnUse" x="0" y="0" width="50" height="50">
<rect width="50" height="50" fill="#D9D9D9"/>
</mask>
<g mask="url(#mask0_15_75)">
<path d="M12.5 45.8333V26.7708C10.625 26.2847 9.11458 25.2951 7.96875 23.8021C6.82292 22.309 6.25 20.625 6.25 18.75V4.16666H10.4167V16.6667H12.5V4.16666H16.6667V16.6667H18.75V4.16666H22.9167V18.75C22.9167 20.625 22.3438 22.309 21.1979 23.8021C20.0521 25.2951 18.5417 26.2847 16.6667 26.7708V45.8333H12.5ZM33.3333 45.8333V25.9896C31.4583 25.3646 29.9479 24.0538 28.8021 22.0573C27.6562 20.0608 27.0833 17.7951 27.0833 15.2604C27.0833 12.1701 27.8993 9.54861 29.5312 7.39583C31.1632 5.24305 33.125 4.16666 35.4167 4.16666C37.7083 4.16666 39.6701 5.25173 41.3021 7.42187C42.934 9.59201 43.75 12.2222 43.75 15.3125C43.75 17.8472 43.1771 20.1042 42.0312 22.0833C40.8854 24.0625 39.375 25.3646 37.5 25.9896V45.8333H33.3333Z" fill="#3878A6"/>
</g>
</svg>
