<svg width="50" height="50" viewBox="0 0 50 50" fill="none" xmlns="http://www.w3.org/2000/svg">
<mask id="mask0_15_117" style="mask-type:alpha" maskUnits="userSpaceOnUse" x="0" y="0" width="50" height="50">
<rect width="50" height="50" fill="#D9D9D9"/>
</mask>
<g mask="url(#mask0_15_117)">
<path d="M25.5728 39.5833C25.9895 39.5486 26.3454 39.3837 26.6405 39.0885C26.9357 38.7934 27.0833 38.4375 27.0833 38.0208C27.0833 37.5347 26.927 37.1441 26.6145 36.849C26.302 36.5538 25.9027 36.4236 25.4166 36.4583C23.993 36.5625 22.4826 36.1719 20.8853 35.2865C19.2881 34.401 18.2812 32.7951 17.8645 30.4688C17.7951 30.0868 17.6128 29.7743 17.3176 29.5313C17.0225 29.2882 16.6839 29.1667 16.302 29.1667C15.8159 29.1667 15.4166 29.349 15.1041 29.7135C14.7916 30.0781 14.6874 30.5035 14.7916 30.9896C15.3819 34.1493 16.7708 36.4063 18.9583 37.7604C21.1458 39.1146 23.3506 39.7222 25.5728 39.5833ZM24.9999 45.8333C20.243 45.8333 16.276 44.2014 13.0989 40.9375C9.92179 37.6736 8.33325 33.6111 8.33325 28.75C8.33325 25.2778 9.71346 21.5017 12.4739 17.4219C15.2343 13.342 19.4096 8.92361 24.9999 4.16667C30.5902 8.92361 34.7655 13.342 37.526 17.4219C40.2864 21.5017 41.6666 25.2778 41.6666 28.75C41.6666 33.6111 40.078 37.6736 36.901 40.9375C33.7239 44.2014 29.7569 45.8333 24.9999 45.8333ZM24.9999 41.6667C28.611 41.6667 31.5971 40.4427 33.9583 37.9948C36.3194 35.5469 37.4999 32.4653 37.4999 28.75C37.4999 26.2153 36.4496 23.3507 34.3489 20.1563C32.2482 16.9618 29.1319 13.4722 24.9999 9.6875C20.868 13.4722 17.7517 16.9618 15.651 20.1563C13.5503 23.3507 12.4999 26.2153 12.4999 28.75C12.4999 32.4653 13.6805 35.5469 16.0416 37.9948C18.4027 40.4427 21.3888 41.6667 24.9999 41.6667Z" fill="#3878A6"/>
</g>
</svg>
