<svg width="50" height="50" viewBox="0 0 50 50" fill="none" xmlns="http://www.w3.org/2000/svg">
<mask id="mask0_35_196" style="mask-type:alpha" maskUnits="userSpaceOnUse" x="0" y="0" width="50" height="50">
<rect width="50" height="50" fill="#D9D9D9"/>
</mask>
<g mask="url(#mask0_35_196)">
<path d="M25 43.75C20.2083 43.75 16.033 42.1615 12.474 38.9844C8.91493 35.8073 6.875 31.8403 6.35417 27.0833H10.625C11.1111 30.6944 12.717 33.6806 15.4427 36.0417C18.1684 38.4028 21.3542 39.5833 25 39.5833C29.0625 39.5833 32.5087 38.1684 35.3385 35.3385C38.1684 32.5087 39.5833 29.0625 39.5833 25C39.5833 20.9375 38.1684 17.4913 35.3385 14.6615C32.5087 11.8316 29.0625 10.4167 25 10.4167C22.6042 10.4167 20.3646 10.9722 18.2812 12.0833C16.1979 13.1944 14.4444 14.7222 13.0208 16.6667H18.75V20.8333H6.25V8.33333H10.4167V13.2292C12.1875 11.0069 14.349 9.28819 16.901 8.07292C19.4531 6.85764 22.1528 6.25 25 6.25C27.6042 6.25 30.0434 6.74479 32.3177 7.73438C34.592 8.72396 36.5712 10.0608 38.2552 11.7448C39.9392 13.4288 41.276 15.408 42.2656 17.6823C43.2552 19.9566 43.75 22.3958 43.75 25C43.75 27.6042 43.2552 30.0434 42.2656 32.3177C41.276 34.592 39.9392 36.5712 38.2552 38.2552C36.5712 39.9392 34.592 41.276 32.3177 42.2656C30.0434 43.2552 27.6042 43.75 25 43.75ZM30.8333 33.75L22.9167 25.8333V14.5833H27.0833V24.1667L33.75 30.8333L30.8333 33.75Z" fill="#3878A6"/>
</g>
</svg>
