<svg width="30" height="30" viewBox="0 0 30 30" fill="none" xmlns="http://www.w3.org/2000/svg">
<path fill-rule="evenodd" clip-rule="evenodd" d="M0.00172815 20.9396L0.00172923 1.0862e-06L18.1225 0V20.9396C18.1225 25.9435 14.0661 30 9.06213 30C4.05821 30 0.00172815 25.9435 0.00172815 20.9396Z" fill="#DD4848"/>
<path fill-rule="evenodd" clip-rule="evenodd" d="M20.9396 0.00172977L0 0.00173032V18.1225H20.9396C25.9435 18.1225 30 14.0661 30 9.06213C30 4.05821 25.9435 0.00172977 20.9396 0.00172977Z" fill="#DD4848"/>
<path fill-rule="evenodd" clip-rule="evenodd" d="M4.95211 2.55166L6.03043 2.52841L7.69474 18.9051L8.8123 6.44033L9.87926 6.36428L11.6587 15.2436L12.2819 12.6272H14.1509L15.5239 8.0391L17.297 13.8737L18.7075 4.54353L19.9109 4.89046L18.0105 16.8252L16.9526 16.8627L15.5239 12.0582L14.8787 13.8737H13.1086L12.136 17.9569L11.0854 17.9322L9.55574 10.2992L8.26742 24.6685L7.19028 24.677L5.59647 8.99404L4.98852 17.8413L3.92111 17.9358L2.6528 11.7722L2.25174 13.8737H0.000488281V12.6272H1.38015L2.10368 8.83607L3.16018 8.82615L4.1803 13.7836L4.95211 2.55166Z" fill="white"/>
<path d="M21.3305 10.4826C23.0665 11.1748 24.6821 10.0368 25.2434 9.14528L30 0L19.3172 6.25943C19.1462 6.8964 19.0669 8.00972 19.5259 8.95454C19.8028 9.52447 20.5637 10.1768 21.3305 10.4826Z" fill="#50B0DF"/>
<path d="M30 0L16.8133 1.59858C15.7599 1.80823 14.936 2.50152 15.1583 3.92087C15.2687 4.62582 16.1019 5.77918 17.9211 5.55372L30 0Z" fill="#50B0DF"/>
<path d="M30 0L17.9211 5.55372V9.78096L19.3172 6.25943L30 0Z" fill="#3878A6"/>
<path d="M19.3172 6.25943L17.9211 9.78096L19.5259 8.95454C19.0669 8.00972 19.1462 6.8964 19.3172 6.25943Z" fill="#1E494D"/>
</svg>
