<svg width="93" height="15" viewBox="0 0 93 15" fill="none" xmlns="http://www.w3.org/2000/svg">
<path d="M90.2946 14.36C89.2946 14.36 88.5546 14.08 88.0746 13.52C87.5946 12.9467 87.3546 12.2 87.3546 11.28V5.74H85.4346C85.4346 5.22 85.5412 4.83333 85.7546 4.58C85.9679 4.31333 86.2546 4.18 86.6146 4.18H87.3946V2.36C87.3946 1.88 87.5546 1.53333 87.8746 1.32C88.1946 1.10667 88.6812 1 89.3346 1V4.18H91.9946C91.9946 4.71333 91.8812 5.10667 91.6546 5.36C91.4412 5.61333 91.1012 5.74 90.6346 5.74H89.3746V11.2C89.3746 11.7067 89.4679 12.0733 89.6546 12.3C89.8412 12.5133 90.1746 12.62 90.6546 12.62C91.1212 12.62 91.5746 12.4933 92.0146 12.24C92.2279 12.4533 92.3346 12.72 92.3346 13.04C92.3346 13.3867 92.1546 13.6933 91.7946 13.96C91.4346 14.2267 90.9346 14.36 90.2946 14.36Z" fill="#323232" fill-opacity="0.7"/>
<path d="M90.2946 14.36C89.2946 14.36 88.5546 14.08 88.0746 13.52C87.5946 12.9467 87.3546 12.2 87.3546 11.28V5.74H85.4346C85.4346 5.22 85.5412 4.83333 85.7546 4.58C85.9679 4.31333 86.2546 4.18 86.6146 4.18H87.3946V2.36C87.3946 1.88 87.5546 1.53333 87.8746 1.32C88.1946 1.10667 88.6812 1 89.3346 1V4.18H91.9946C91.9946 4.71333 91.8812 5.10667 91.6546 5.36C91.4412 5.61333 91.1012 5.74 90.6346 5.74H89.3746V11.2C89.3746 11.7067 89.4679 12.0733 89.6546 12.3C89.8412 12.5133 90.1746 12.62 90.6546 12.62C91.1212 12.62 91.5746 12.4933 92.0146 12.24C92.2279 12.4533 92.3346 12.72 92.3346 13.04C92.3346 13.3867 92.1546 13.6933 91.7946 13.96C91.4346 14.2267 90.9346 14.36 90.2946 14.36Z" fill="#3878A6" fill-opacity="0.7"/>
<path d="M80.0729 14.36C79.2329 14.36 78.4795 14.2067 77.8129 13.9C77.1462 13.5933 76.6195 13.1733 76.2328 12.64C75.8595 12.0933 75.6729 11.4867 75.6729 10.82V7.68C75.6729 7 75.8595 6.38 76.2328 5.82C76.6062 5.26 77.1262 4.82 77.7929 4.5C78.4595 4.16667 79.2195 4 80.0729 4C80.9262 4 81.6862 4.16667 82.3529 4.5C83.0195 4.82 83.5395 5.26 83.9128 5.82C84.2995 6.38 84.4929 7 84.4929 7.68V10.82C84.4929 11.4867 84.2995 12.0933 83.9128 12.64C83.5395 13.1733 83.0128 13.5933 82.3328 13.9C81.6662 14.2067 80.9129 14.36 80.0729 14.36ZM80.0729 12.64C80.8329 12.64 81.4328 12.4667 81.8728 12.12C82.3128 11.76 82.5329 11.2867 82.5329 10.7V7.76C82.5329 7.14667 82.3062 6.65333 81.8529 6.28C81.4129 5.90667 80.8195 5.72 80.0729 5.72C79.3262 5.72 78.7262 5.90667 78.2729 6.28C77.8328 6.65333 77.6129 7.14667 77.6129 7.76V10.7C77.6129 11.2867 77.8328 11.76 78.2729 12.12C78.7129 12.4667 79.3129 12.64 80.0729 12.64Z" fill="#323232" fill-opacity="0.7"/>
<path d="M80.0729 14.36C79.2329 14.36 78.4795 14.2067 77.8129 13.9C77.1462 13.5933 76.6195 13.1733 76.2328 12.64C75.8595 12.0933 75.6729 11.4867 75.6729 10.82V7.68C75.6729 7 75.8595 6.38 76.2328 5.82C76.6062 5.26 77.1262 4.82 77.7929 4.5C78.4595 4.16667 79.2195 4 80.0729 4C80.9262 4 81.6862 4.16667 82.3529 4.5C83.0195 4.82 83.5395 5.26 83.9128 5.82C84.2995 6.38 84.4929 7 84.4929 7.68V10.82C84.4929 11.4867 84.2995 12.0933 83.9128 12.64C83.5395 13.1733 83.0128 13.5933 82.3328 13.9C81.6662 14.2067 80.9129 14.36 80.0729 14.36ZM80.0729 12.64C80.8329 12.64 81.4328 12.4667 81.8728 12.12C82.3128 11.76 82.5329 11.2867 82.5329 10.7V7.76C82.5329 7.14667 82.3062 6.65333 81.8529 6.28C81.4129 5.90667 80.8195 5.72 80.0729 5.72C79.3262 5.72 78.7262 5.90667 78.2729 6.28C77.8328 6.65333 77.6129 7.14667 77.6129 7.76V10.7C77.6129 11.2867 77.8328 11.76 78.2729 12.12C78.7129 12.4667 79.3129 12.64 80.0729 12.64Z" fill="#3878A6" fill-opacity="0.7"/>
<path d="M72.6884 14.36C71.6617 14.36 70.8951 14.08 70.3884 13.52C69.8817 12.9467 69.6284 12.2 69.6284 11.28V1.36C69.6284 0.88 69.7884 0.533333 70.1084 0.32C70.4417 0.106667 70.9484 0 71.6284 0V11.2C71.6284 11.7067 71.7284 12.0733 71.9284 12.3C72.1417 12.5133 72.4884 12.62 72.9684 12.62C73.4617 12.62 73.9284 12.4933 74.3684 12.24C74.5684 12.4667 74.6684 12.7333 74.6684 13.04C74.6684 13.3867 74.4884 13.6933 74.1284 13.96C73.7818 14.2267 73.3017 14.36 72.6884 14.36Z" fill="#323232" fill-opacity="0.7"/>
<path d="M72.6884 14.36C71.6617 14.36 70.8951 14.08 70.3884 13.52C69.8817 12.9467 69.6284 12.2 69.6284 11.28V1.36C69.6284 0.88 69.7884 0.533333 70.1084 0.32C70.4417 0.106667 70.9484 0 71.6284 0V11.2C71.6284 11.7067 71.7284 12.0733 71.9284 12.3C72.1417 12.5133 72.4884 12.62 72.9684 12.62C73.4617 12.62 73.9284 12.4933 74.3684 12.24C74.5684 12.4667 74.6684 12.7333 74.6684 13.04C74.6684 13.3867 74.4884 13.6933 74.1284 13.96C73.7818 14.2267 73.3017 14.36 72.6884 14.36Z" fill="#3878A6" fill-opacity="0.7"/>
<path d="M65.5806 2.68C65.1806 2.68 64.8406 2.55333 64.5606 2.3C64.2806 2.04667 64.1406 1.72667 64.1406 1.34C64.1406 0.953334 64.2806 0.633334 64.5606 0.38C64.8406 0.126667 65.1806 0 65.5806 0C65.9806 0 66.314 0.126667 66.5806 0.38C66.8606 0.633334 67.0006 0.953334 67.0006 1.34C67.0006 1.72667 66.8606 2.04667 66.5806 2.3C66.314 2.55333 65.9806 2.68 65.5806 2.68ZM64.5806 5.36C64.5806 4.88 64.7406 4.53333 65.0606 4.32C65.394 4.10667 65.894 4 66.5606 4V13C66.5606 13.4667 66.394 13.8133 66.0606 14.04C65.7406 14.2533 65.2473 14.36 64.5806 14.36V5.36Z" fill="#323232" fill-opacity="0.7"/>
<path d="M65.5806 2.68C65.1806 2.68 64.8406 2.55333 64.5606 2.3C64.2806 2.04667 64.1406 1.72667 64.1406 1.34C64.1406 0.953334 64.2806 0.633334 64.5606 0.38C64.8406 0.126667 65.1806 0 65.5806 0C65.9806 0 66.314 0.126667 66.5806 0.38C66.8606 0.633334 67.0006 0.953334 67.0006 1.34C67.0006 1.72667 66.8606 2.04667 66.5806 2.3C66.314 2.55333 65.9806 2.68 65.5806 2.68ZM64.5806 5.36C64.5806 4.88 64.7406 4.53333 65.0606 4.32C65.394 4.10667 65.894 4 66.5606 4V13C66.5606 13.4667 66.394 13.8133 66.0606 14.04C65.7406 14.2533 65.2473 14.36 64.5806 14.36V5.36Z" fill="#3878A6" fill-opacity="0.7"/>
<path d="M51.2305 1.17999C51.2305 0.886659 51.3305 0.646659 51.5305 0.459992C51.7438 0.273326 52.0105 0.179993 52.3305 0.179993H58.0705C58.9771 0.179993 59.7771 0.366659 60.4705 0.739993C61.1771 1.09999 61.7238 1.61999 62.1105 2.29999C62.4971 2.96666 62.6905 3.73999 62.6905 4.61999C62.6905 5.51333 62.4971 6.29999 62.1105 6.97999C61.7371 7.65999 61.1971 8.18666 60.4905 8.55999C59.7971 8.91999 58.9905 9.09999 58.0705 9.09999H53.3905V12.66C53.3905 13.2067 53.2038 13.6267 52.8305 13.92C52.4571 14.2133 51.9238 14.36 51.2305 14.36V1.17999ZM58.0705 7.21999C58.8438 7.21999 59.4505 6.99333 59.8905 6.53999C60.3305 6.07333 60.5505 5.43333 60.5505 4.61999C60.5505 3.83333 60.3238 3.21333 59.8705 2.75999C59.4305 2.29333 58.8305 2.05999 58.0705 2.05999H53.3905V7.21999H58.0705Z" fill="#323232" fill-opacity="0.7"/>
<path d="M51.2305 1.17999C51.2305 0.886659 51.3305 0.646659 51.5305 0.459992C51.7438 0.273326 52.0105 0.179993 52.3305 0.179993H58.0705C58.9771 0.179993 59.7771 0.366659 60.4705 0.739993C61.1771 1.09999 61.7238 1.61999 62.1105 2.29999C62.4971 2.96666 62.6905 3.73999 62.6905 4.61999C62.6905 5.51333 62.4971 6.29999 62.1105 6.97999C61.7371 7.65999 61.1971 8.18666 60.4905 8.55999C59.7971 8.91999 58.9905 9.09999 58.0705 9.09999H53.3905V12.66C53.3905 13.2067 53.2038 13.6267 52.8305 13.92C52.4571 14.2133 51.9238 14.36 51.2305 14.36V1.17999ZM58.0705 7.21999C58.8438 7.21999 59.4505 6.99333 59.8905 6.53999C60.3305 6.07333 60.5505 5.43333 60.5505 4.61999C60.5505 3.83333 60.3238 3.21333 59.8705 2.75999C59.4305 2.29333 58.8305 2.05999 58.0705 2.05999H53.3905V7.21999H58.0705Z" fill="#3878A6" fill-opacity="0.7"/>
<path d="M44.8432 14.36C44.0299 14.36 43.2965 14.2 42.6432 13.88C41.9899 13.56 41.4765 13.12 41.1032 12.56C40.7299 12 40.5432 11.3733 40.5432 10.68V7.82C40.5432 7.1 40.7365 6.45333 41.1232 5.88C41.5232 5.29333 42.0499 4.83333 42.7032 4.5C43.3565 4.16667 44.0699 4 44.8432 4C45.6165 4 46.3232 4.16 46.9632 4.48C47.6032 4.8 48.1099 5.24667 48.4832 5.82C48.8565 6.38 49.0432 7.02 49.0432 7.74V8.98C49.0432 9.20667 48.9499 9.40667 48.7632 9.58C48.5899 9.74 48.3765 9.82 48.1232 9.82H42.4832V10.58C42.4832 11.22 42.6832 11.74 43.0832 12.14C43.4832 12.5267 44.0699 12.72 44.8432 12.72C45.6165 12.72 46.1965 12.5533 46.5832 12.22C46.9832 11.8733 47.1832 11.42 47.1832 10.86C47.6632 10.82 48.0565 10.9 48.3632 11.1C48.6699 11.2867 48.8232 11.5733 48.8232 11.96C48.8232 12.3733 48.6365 12.7667 48.2632 13.14C47.9032 13.5 47.4165 13.7933 46.8032 14.02C46.2032 14.2467 45.5499 14.36 44.8432 14.36ZM47.2232 8.32V7.74C47.2232 7.11333 47.0032 6.60667 46.5632 6.22C46.1232 5.82 45.5499 5.62 44.8432 5.62C44.1365 5.62 43.5632 5.82 43.1232 6.22C42.6965 6.60667 42.4832 7.11333 42.4832 7.74V8.32H47.2232Z" fill="#323232" fill-opacity="0.7"/>
<path d="M44.8432 14.36C44.0299 14.36 43.2965 14.2 42.6432 13.88C41.9899 13.56 41.4765 13.12 41.1032 12.56C40.7299 12 40.5432 11.3733 40.5432 10.68V7.82C40.5432 7.1 40.7365 6.45333 41.1232 5.88C41.5232 5.29333 42.0499 4.83333 42.7032 4.5C43.3565 4.16667 44.0699 4 44.8432 4C45.6165 4 46.3232 4.16 46.9632 4.48C47.6032 4.8 48.1099 5.24667 48.4832 5.82C48.8565 6.38 49.0432 7.02 49.0432 7.74V8.98C49.0432 9.20667 48.9499 9.40667 48.7632 9.58C48.5899 9.74 48.3765 9.82 48.1232 9.82H42.4832V10.58C42.4832 11.22 42.6832 11.74 43.0832 12.14C43.4832 12.5267 44.0699 12.72 44.8432 12.72C45.6165 12.72 46.1965 12.5533 46.5832 12.22C46.9832 11.8733 47.1832 11.42 47.1832 10.86C47.6632 10.82 48.0565 10.9 48.3632 11.1C48.6699 11.2867 48.8232 11.5733 48.8232 11.96C48.8232 12.3733 48.6365 12.7667 48.2632 13.14C47.9032 13.5 47.4165 13.7933 46.8032 14.02C46.2032 14.2467 45.5499 14.36 44.8432 14.36ZM47.2232 8.32V7.74C47.2232 7.11333 47.0032 6.60667 46.5632 6.22C46.1232 5.82 45.5499 5.62 44.8432 5.62C44.1365 5.62 43.5632 5.82 43.1232 6.22C42.6965 6.60667 42.4832 7.11333 42.4832 7.74V8.32H47.2232Z" fill="#DD4848" fill-opacity="0.7"/>
<path d="M34.3073 14.36C33.574 14.36 32.894 14.26 32.2673 14.06C31.654 13.8467 31.1673 13.5467 30.8073 13.16C30.4473 12.76 30.2673 12.3067 30.2673 11.8C30.2673 11.12 30.714 10.76 31.6073 10.72C31.7273 11.4133 32.0273 11.9333 32.5073 12.28C33.0007 12.6133 33.6073 12.78 34.3273 12.78C35.074 12.78 35.654 12.6733 36.0673 12.46C36.4807 12.2467 36.6873 11.9267 36.6873 11.5C36.6873 11.0733 36.5007 10.74 36.1273 10.5C35.7673 10.26 35.0873 10.0333 34.0873 9.82C33.1673 9.60667 32.4407 9.38667 31.9073 9.16C31.374 8.93333 30.974 8.63333 30.7073 8.26C30.4407 7.87333 30.3073 7.38 30.3073 6.78C30.3073 6.24667 30.4673 5.77333 30.7873 5.36C31.1073 4.93333 31.554 4.6 32.1273 4.36C32.714 4.12 33.3873 4 34.1473 4C34.8673 4 35.5273 4.09333 36.1273 4.28C36.7407 4.46667 37.2273 4.74 37.5873 5.1C37.9607 5.44667 38.1473 5.85333 38.1473 6.32C38.1473 6.97333 37.654 7.32 36.6673 7.36C36.6007 6.8 36.354 6.36 35.9273 6.04C35.514 5.72 34.9407 5.56 34.2073 5.56C33.6073 5.56 33.1207 5.67333 32.7473 5.9C32.374 6.11333 32.1873 6.4 32.1873 6.76C32.1873 7.13333 32.354 7.42 32.6873 7.62C33.034 7.80667 33.6207 7.99333 34.4473 8.18C35.874 8.47333 36.9207 8.87333 37.5873 9.38C38.254 9.87333 38.5873 10.5733 38.5873 11.48C38.5873 12.3867 38.2073 13.0933 37.4473 13.6C36.7007 14.1067 35.654 14.36 34.3073 14.36Z" fill="#323232" fill-opacity="0.7"/>
<path d="M34.3073 14.36C33.574 14.36 32.894 14.26 32.2673 14.06C31.654 13.8467 31.1673 13.5467 30.8073 13.16C30.4473 12.76 30.2673 12.3067 30.2673 11.8C30.2673 11.12 30.714 10.76 31.6073 10.72C31.7273 11.4133 32.0273 11.9333 32.5073 12.28C33.0007 12.6133 33.6073 12.78 34.3273 12.78C35.074 12.78 35.654 12.6733 36.0673 12.46C36.4807 12.2467 36.6873 11.9267 36.6873 11.5C36.6873 11.0733 36.5007 10.74 36.1273 10.5C35.7673 10.26 35.0873 10.0333 34.0873 9.82C33.1673 9.60667 32.4407 9.38667 31.9073 9.16C31.374 8.93333 30.974 8.63333 30.7073 8.26C30.4407 7.87333 30.3073 7.38 30.3073 6.78C30.3073 6.24667 30.4673 5.77333 30.7873 5.36C31.1073 4.93333 31.554 4.6 32.1273 4.36C32.714 4.12 33.3873 4 34.1473 4C34.8673 4 35.5273 4.09333 36.1273 4.28C36.7407 4.46667 37.2273 4.74 37.5873 5.1C37.9607 5.44667 38.1473 5.85333 38.1473 6.32C38.1473 6.97333 37.654 7.32 36.6673 7.36C36.6007 6.8 36.354 6.36 35.9273 6.04C35.514 5.72 34.9407 5.56 34.2073 5.56C33.6073 5.56 33.1207 5.67333 32.7473 5.9C32.374 6.11333 32.1873 6.4 32.1873 6.76C32.1873 7.13333 32.354 7.42 32.6873 7.62C33.034 7.80667 33.6207 7.99333 34.4473 8.18C35.874 8.47333 36.9207 8.87333 37.5873 9.38C38.254 9.87333 38.5873 10.5733 38.5873 11.48C38.5873 12.3867 38.2073 13.0933 37.4473 13.6C36.7007 14.1067 35.654 14.36 34.3073 14.36Z" fill="#DD4848" fill-opacity="0.7"/>
<path d="M26.8681 14.36C25.8414 14.36 25.0748 14.08 24.5681 13.52C24.0614 12.9467 23.8081 12.2 23.8081 11.28V1.36C23.8081 0.88 23.9681 0.533333 24.2881 0.32C24.6214 0.106667 25.1281 0 25.8081 0V11.2C25.8081 11.7067 25.9081 12.0733 26.1081 12.3C26.3214 12.5133 26.6681 12.62 27.1481 12.62C27.6414 12.62 28.1081 12.4933 28.5481 12.24C28.7481 12.4667 28.8481 12.7333 28.8481 13.04C28.8481 13.3867 28.6681 13.6933 28.3081 13.96C27.9614 14.2267 27.4814 14.36 26.8681 14.36Z" fill="#323232" fill-opacity="0.7"/>
<path d="M26.8681 14.36C25.8414 14.36 25.0748 14.08 24.5681 13.52C24.0614 12.9467 23.8081 12.2 23.8081 11.28V1.36C23.8081 0.88 23.9681 0.533333 24.2881 0.32C24.6214 0.106667 25.1281 0 25.8081 0V11.2C25.8081 11.7067 25.9081 12.0733 26.1081 12.3C26.3214 12.5133 26.6681 12.62 27.1481 12.62C27.6414 12.62 28.1081 12.4933 28.5481 12.24C28.7481 12.4667 28.8481 12.7333 28.8481 13.04C28.8481 13.3867 28.6681 13.6933 28.3081 13.96C27.9614 14.2267 27.4814 14.36 26.8681 14.36Z" fill="#DD4848" fill-opacity="0.7"/>
<path d="M21.1949 12.72C21.1949 13.8133 20.5549 14.36 19.2749 14.36V13.1C19.4082 12.98 19.5549 12.7867 19.7149 12.52L19.6349 12.44C19.2216 13.0267 18.7216 13.4933 18.1349 13.84C17.5482 14.1867 16.8882 14.36 16.1549 14.36C15.4482 14.36 14.8216 14.2067 14.2749 13.9C13.7282 13.5933 13.3016 13.1667 12.9949 12.62C12.6882 12.06 12.5349 11.4333 12.5349 10.74V5.36C12.5349 4.88 12.6949 4.53333 13.0149 4.32C13.3482 4.10667 13.8549 4 14.5349 4V10.64C14.5349 11.24 14.7149 11.72 15.0749 12.08C15.4349 12.44 15.9616 12.62 16.6549 12.62C17.3749 12.62 17.9816 12.4 18.4749 11.96C18.9682 11.52 19.2149 10.98 19.2149 10.34V5.36C19.2149 4.88 19.3749 4.53333 19.6949 4.32C20.0149 4.10667 20.5149 4 21.1949 4V12.72Z" fill="#323232" fill-opacity="0.7"/>
<path d="M21.1949 12.72C21.1949 13.8133 20.5549 14.36 19.2749 14.36V13.1C19.4082 12.98 19.5549 12.7867 19.7149 12.52L19.6349 12.44C19.2216 13.0267 18.7216 13.4933 18.1349 13.84C17.5482 14.1867 16.8882 14.36 16.1549 14.36C15.4482 14.36 14.8216 14.2067 14.2749 13.9C13.7282 13.5933 13.3016 13.1667 12.9949 12.62C12.6882 12.06 12.5349 11.4333 12.5349 10.74V5.36C12.5349 4.88 12.6949 4.53333 13.0149 4.32C13.3482 4.10667 13.8549 4 14.5349 4V10.64C14.5349 11.24 14.7149 11.72 15.0749 12.08C15.4349 12.44 15.9616 12.62 16.6549 12.62C17.3749 12.62 17.9816 12.4 18.4749 11.96C18.9682 11.52 19.2149 10.98 19.2149 10.34V5.36C19.2149 4.88 19.3749 4.53333 19.6949 4.32C20.0149 4.10667 20.5149 4 21.1949 4V12.72Z" fill="#DD4848" fill-opacity="0.7"/>
<path d="M0 1.17999C0 0.886659 0.1 0.646659 0.3 0.459992C0.513333 0.273326 0.78 0.179993 1.1 0.179993H6.84C7.74667 0.179993 8.54667 0.366659 9.24 0.739993C9.94667 1.09999 10.4933 1.61999 10.88 2.29999C11.2667 2.96666 11.46 3.73999 11.46 4.61999C11.46 5.51333 11.2667 6.29999 10.88 6.97999C10.5067 7.65999 9.96667 8.18666 9.26 8.55999C8.56667 8.91999 7.76 9.09999 6.84 9.09999H2.16V12.66C2.16 13.2067 1.97333 13.6267 1.6 13.92C1.22667 14.2133 0.693333 14.36 0 14.36V1.17999ZM6.84 7.21999C7.61333 7.21999 8.22 6.99333 8.66 6.53999C9.1 6.07333 9.32 5.43333 9.32 4.61999C9.32 3.83333 9.09333 3.21333 8.64 2.75999C8.2 2.29333 7.6 2.05999 6.84 2.05999H2.16V7.21999H6.84Z" fill="#323232" fill-opacity="0.7"/>
<path d="M0 1.17999C0 0.886659 0.1 0.646659 0.3 0.459992C0.513333 0.273326 0.78 0.179993 1.1 0.179993H6.84C7.74667 0.179993 8.54667 0.366659 9.24 0.739993C9.94667 1.09999 10.4933 1.61999 10.88 2.29999C11.2667 2.96666 11.46 3.73999 11.46 4.61999C11.46 5.51333 11.2667 6.29999 10.88 6.97999C10.5067 7.65999 9.96667 8.18666 9.26 8.55999C8.56667 8.91999 7.76 9.09999 6.84 9.09999H2.16V12.66C2.16 13.2067 1.97333 13.6267 1.6 13.92C1.22667 14.2133 0.693333 14.36 0 14.36V1.17999ZM6.84 7.21999C7.61333 7.21999 8.22 6.99333 8.66 6.53999C9.1 6.07333 9.32 5.43333 9.32 4.61999C9.32 3.83333 9.09333 3.21333 8.64 2.75999C8.2 2.29333 7.6 2.05999 6.84 2.05999H2.16V7.21999H6.84Z" fill="#DD4848" fill-opacity="0.7"/>
</svg>
