<svg width="50" height="50" viewBox="0 0 50 50" fill="none" xmlns="http://www.w3.org/2000/svg">
<mask id="mask0_15_93" style="mask-type:alpha" maskUnits="userSpaceOnUse" x="0" y="0" width="50" height="50">
<rect width="50" height="50" fill="#D9D9D9"/>
</mask>
<g mask="url(#mask0_15_93)">
<path d="M4.16675 45.8333C4.16675 41.9792 4.6789 38.6892 5.70321 35.9635C6.72751 33.2378 8.03828 30.9722 9.6355 29.1667C11.2327 27.3611 13.0209 25.9635 15.0001 24.974C16.9792 23.9844 18.9237 23.2986 20.8334 22.9167V16.6667C16.0765 16.0764 12.1095 14.6094 8.93237 12.2656C5.75529 9.92188 4.16675 7.22222 4.16675 4.16667H45.8334C45.8334 7.22222 44.2449 9.92188 41.0678 12.2656C37.8907 14.6094 33.9237 16.0764 29.1667 16.6667V22.9167C31.0765 23.2986 33.0209 23.9844 35.0001 24.974C36.9793 25.9635 38.7674 27.3611 40.3647 29.1667C41.9619 30.9722 43.2727 33.2378 44.297 35.9635C45.3213 38.6892 45.8334 41.9792 45.8334 45.8333H33.3334V41.6667H41.4063C40.7813 36.3889 38.8108 32.5694 35.4949 30.2083C32.1789 27.8472 28.6806 26.6667 25.0001 26.6667C21.3195 26.6667 17.8213 27.8472 14.5053 30.2083C11.1893 32.5694 9.21883 36.3889 8.59383 41.6667H16.6667V45.8333H4.16675ZM25.0001 12.7604C28.1598 12.7604 30.9723 12.3351 33.4376 11.4844C35.9029 10.6337 37.8647 9.58333 39.323 8.33333H10.6772C12.1355 9.58333 14.0973 10.6337 16.5626 11.4844C19.0279 12.3351 21.8404 12.7604 25.0001 12.7604ZM25.0001 45.8333C23.8542 45.8333 22.8733 45.4254 22.0574 44.6094C21.2414 43.7934 20.8334 42.8125 20.8334 41.6667C20.8334 41.0764 20.9463 40.5382 21.172 40.0521C21.3977 39.566 21.7015 39.1319 22.0834 38.75C22.9167 37.9167 24.323 37.0399 26.3022 36.1198C28.2813 35.1997 30.6251 34.2708 33.3334 33.3333C32.3612 36.0417 31.4237 38.3854 30.5209 40.3646C29.6181 42.3438 28.7501 43.75 27.9168 44.5833C27.5348 44.9653 27.1008 45.2691 26.6147 45.4948C26.1286 45.7205 25.5904 45.8333 25.0001 45.8333Z" fill="#3878A6"/>
</g>
</svg>
