<svg width="50" height="50" viewBox="0 0 50 50" fill="none" xmlns="http://www.w3.org/2000/svg">
<mask id="mask0_15_63" style="mask-type:alpha" maskUnits="userSpaceOnUse" x="0" y="0" width="50" height="50">
<rect width="50" height="50" fill="#D9D9D9"/>
</mask>
<g mask="url(#mask0_15_63)">
<path d="M21.8749 35.4167C20.7291 35.4167 19.7482 35.0087 18.9322 34.1927C18.1162 33.3767 17.7083 32.3958 17.7083 31.25V18.75C17.7083 17.6042 18.1162 16.6233 18.9322 15.8073C19.7482 14.9913 20.7291 14.5833 21.8749 14.5833H28.1249C29.2708 14.5833 30.2517 14.9913 31.0676 15.8073C31.8836 16.6233 32.2916 17.6042 32.2916 18.75V31.25C32.2916 32.3958 31.8836 33.3767 31.0676 34.1927C30.2517 35.0087 29.2708 35.4167 28.1249 35.4167H21.8749ZM2.08325 35.4167V31.25H10.4166V27.0833H6.24992C5.10409 27.0833 4.12318 26.6754 3.30721 25.8594C2.49124 25.0434 2.08325 24.0625 2.08325 22.9167V18.75C2.08325 17.6042 2.49124 16.6233 3.30721 15.8073C4.12318 14.9913 5.10409 14.5833 6.24992 14.5833H14.5833V18.75H6.24992V22.9167H10.4166C11.5624 22.9167 12.5433 23.3247 13.3593 24.1406C14.1753 24.9566 14.5833 25.9375 14.5833 27.0833V31.25C14.5833 32.3958 14.1753 33.3767 13.3593 34.1927C12.5433 35.0087 11.5624 35.4167 10.4166 35.4167H2.08325ZM35.4166 35.4167V31.25H43.7499V27.0833H39.5833C38.4374 27.0833 37.4565 26.6754 36.6405 25.8594C35.8246 25.0434 35.4166 24.0625 35.4166 22.9167V18.75C35.4166 17.6042 35.8246 16.6233 36.6405 15.8073C37.4565 14.9913 38.4374 14.5833 39.5833 14.5833H47.9166V18.75H39.5833V22.9167H43.7499C44.8958 22.9167 45.8767 23.3247 46.6926 24.1406C47.5086 24.9566 47.9166 25.9375 47.9166 27.0833V31.25C47.9166 32.3958 47.5086 33.3767 46.6926 34.1927C45.8767 35.0087 44.8958 35.4167 43.7499 35.4167H35.4166ZM21.8749 31.25H28.1249V18.75H21.8749V31.25Z" fill="#3878A6"/>
</g>
</svg>
